<?xml version="1.0" encoding="UTF-8" standalone="no"?>
<!DOCTYPE svg PUBLIC "-//W3C//DTD SVG 1.1//EN"
 "http://www.w3.org/Graphics/SVG/1.1/DTD/svg11.dtd">
<!-- Generated by graphviz version 5.0.0 (20220707.1540)
 -->
<!-- Title: dependencies Pages: 1 -->
<svg width="298pt" height="174pt"
 viewBox="0.00 0.00 298.00 173.80" xmlns="http://www.w3.org/2000/svg" xmlns:xlink="http://www.w3.org/1999/xlink">
<g id="graph0" class="graph" transform="scale(1 1) rotate(0) translate(4 169.8)">
<title>dependencies</title>
<polygon fill="white" stroke="transparent" points="-4,4 -4,-169.8 294,-169.8 294,4 -4,4"/>
<text text-anchor="middle" x="145" y="-8.2" font-family="sans-serif" font-size="14.00">dependencies</text>
<g id="clust1" class="cluster">
<title>cluster_AppModule</title>
<polygon fill="none" stroke="black" stroke-dasharray="1,5" points="8,-32.8 8,-157.8 282,-157.8 282,-32.8 8,-32.8"/>
</g>
<g id="clust6" class="cluster">
<title>cluster_AppModule_providers</title>
<polygon fill="none" stroke="black" points="144,-40.8 144,-92.8 274,-92.8 274,-40.8 144,-40.8"/>
</g>
<g id="clust3" class="cluster">
<title>cluster_AppModule_imports</title>
<polygon fill="none" stroke="black" points="16,-40.8 16,-92.8 136,-92.8 136,-40.8 16,-40.8"/>
</g>
<!-- LicenseModule -->
<g id="node1" class="node">
<title>LicenseModule</title>
<polygon fill="#8dd3c7" stroke="black" points="127.58,-84.8 124.58,-88.8 103.58,-88.8 100.58,-84.8 24.42,-84.8 24.42,-48.8 127.58,-48.8 127.58,-84.8"/>
<text text-anchor="middle" x="76" y="-62.6" font-family="Times,serif" font-size="14.00">LicenseModule</text>
</g>
<!-- AppModule -->
<g id="node2" class="node">
<title>AppModule</title>
<polygon fill="#8dd3c7" stroke="black" points="183.66,-149.8 180.66,-153.8 159.66,-153.8 156.66,-149.8 100.34,-149.8 100.34,-113.8 183.66,-113.8 183.66,-149.8"/>
<text text-anchor="middle" x="142" y="-127.6" font-family="Times,serif" font-size="14.00">AppModule</text>
</g>
<!-- LicenseModule&#45;&gt;AppModule -->
<g id="edge1" class="edge">
<title>LicenseModule&#45;&gt;AppModule</title>
<path fill="none" stroke="black" d="M113.86,-84.91C113.86,-84.91 113.86,-103.79 113.86,-103.79"/>
<polygon fill="black" stroke="black" points="110.36,-103.79 113.86,-113.79 117.36,-103.79 110.36,-103.79"/>
</g>
<!-- AppService -->
<g id="node3" class="node">
<title>AppService</title>
<ellipse fill="#fdb462" stroke="black" cx="209" cy="-66.8" rx="56.75" ry="18"/>
<text text-anchor="middle" x="209" y="-62.6" font-family="Times,serif" font-size="14.00">AppService</text>
</g>
<!-- AppService&#45;&gt;AppModule -->
<g id="edge2" class="edge">
<title>AppService&#45;&gt;AppModule</title>
<path fill="none" stroke="black" d="M168.1,-79.33C168.1,-79.33 168.1,-103.65 168.1,-103.65"/>
<polygon fill="black" stroke="black" points="164.6,-103.65 168.1,-113.65 171.6,-103.65 164.6,-103.65"/>
</g>
</g>
</svg>
